<mxfile host="app.diagrams.net" modified="2023-06-04T14:48:05.385Z" agent="Mozilla/5.0 (Windows NT 10.0; Win64; x64) AppleWebKit/537.36 (KHTML, like Gecko) Chrome/87.0.4280.141 Safari/537.36 OPR/73.0.3856.438" etag="jD2U7IS_JjyMQ7qJYY-e" version="21.3.7" type="device">
  <diagram name="Страница 1" id="dyWeSN-GJxNEEpEYrFs4">
    <mxGraphModel dx="2033" dy="1157" grid="0" gridSize="10" guides="1" tooltips="1" connect="1" arrows="1" fold="1" page="1" pageScale="1" pageWidth="827" pageHeight="1169" math="0" shadow="0">
      <root>
        <mxCell id="0" />
        <mxCell id="1" parent="0" />
        <mxCell id="t3qKeMUy32GtFT49nubf-1" value="print_car&lt;br&gt;начало" style="strokeWidth=2;html=1;shape=mxgraph.flowchart.terminator;whiteSpace=wrap;" parent="1" vertex="1">
          <mxGeometry x="280" y="40" width="120" height="60" as="geometry" />
        </mxCell>
        <mxCell id="t3qKeMUy32GtFT49nubf-2" value="" style="endArrow=none;html=1;rounded=0;edgeStyle=orthogonalEdgeStyle;entryX=0.5;entryY=1;entryDx=0;entryDy=0;entryPerimeter=0;exitX=0.5;exitY=0;exitDx=0;exitDy=0;" parent="1" source="t3qKeMUy32GtFT49nubf-3" target="t3qKeMUy32GtFT49nubf-1" edge="1">
          <mxGeometry width="50" height="50" relative="1" as="geometry">
            <mxPoint x="340" y="120" as="sourcePoint" />
            <mxPoint x="320" y="180" as="targetPoint" />
          </mxGeometry>
        </mxCell>
        <mxCell id="t3qKeMUy32GtFT49nubf-3" value="car_struct = car" style="rounded=0;whiteSpace=wrap;html=1;" parent="1" vertex="1">
          <mxGeometry x="280" y="120" width="120" height="60" as="geometry" />
        </mxCell>
        <mxCell id="t3qKeMUy32GtFT49nubf-4" value="" style="endArrow=none;html=1;rounded=0;edgeStyle=orthogonalEdgeStyle;entryX=0.5;entryY=1;entryDx=0;entryDy=0;exitX=0.5;exitY=0;exitDx=0;exitDy=0;" parent="1" source="t3qKeMUy32GtFT49nubf-5" target="t3qKeMUy32GtFT49nubf-3" edge="1">
          <mxGeometry width="50" height="50" relative="1" as="geometry">
            <mxPoint x="340" y="200" as="sourcePoint" />
            <mxPoint x="320" y="190" as="targetPoint" />
            <Array as="points">
              <mxPoint x="340" y="200" />
              <mxPoint x="340" y="200" />
            </Array>
          </mxGeometry>
        </mxCell>
        <mxCell id="t3qKeMUy32GtFT49nubf-5" value="Вывод&amp;nbsp;" style="shape=parallelogram;perimeter=parallelogramPerimeter;whiteSpace=wrap;html=1;fixedSize=1;" parent="1" vertex="1">
          <mxGeometry x="280" y="220" width="120" height="60" as="geometry" />
        </mxCell>
        <mxCell id="t3qKeMUy32GtFT49nubf-7" value="car_struct.id,&amp;nbsp;&lt;br&gt;car_struct.brand,&amp;nbsp;&lt;br&gt;car_struct.model,&amp;nbsp;&lt;br&gt;car_struct.cost,&amp;nbsp;&lt;br&gt;car_struct.year_of_issue,&amp;nbsp;&lt;br&gt;car_struct.engine.name&amp;nbsp;" style="strokeWidth=2;html=1;shape=mxgraph.flowchart.annotation_1;align=right;pointerEvents=1;rotation=0;direction=west;" parent="1" vertex="1">
          <mxGeometry x="240" y="200" width="20" height="100" as="geometry" />
        </mxCell>
        <mxCell id="t3qKeMUy32GtFT49nubf-8" value="" style="endArrow=none;dashed=1;html=1;rounded=0;entryX=0;entryY=0.5;entryDx=0;entryDy=0;entryPerimeter=0;edgeStyle=orthogonalEdgeStyle;exitX=0;exitY=0.5;exitDx=0;exitDy=0;" parent="1" source="t3qKeMUy32GtFT49nubf-5" target="t3qKeMUy32GtFT49nubf-7" edge="1">
          <mxGeometry width="50" height="50" relative="1" as="geometry">
            <mxPoint x="280" y="220" as="sourcePoint" />
            <mxPoint x="260" y="320" as="targetPoint" />
          </mxGeometry>
        </mxCell>
        <mxCell id="t3qKeMUy32GtFT49nubf-9" value="print_component&lt;br&gt;конец" style="strokeWidth=2;html=1;shape=mxgraph.flowchart.terminator;whiteSpace=wrap;" parent="1" vertex="1">
          <mxGeometry x="280" y="320" width="120" height="60" as="geometry" />
        </mxCell>
        <mxCell id="t3qKeMUy32GtFT49nubf-21" value="" style="endArrow=none;html=1;rounded=0;edgeStyle=orthogonalEdgeStyle;entryX=0.5;entryY=1;entryDx=0;entryDy=0;exitX=0.5;exitY=0;exitDx=0;exitDy=0;exitPerimeter=0;" parent="1" source="t3qKeMUy32GtFT49nubf-9" target="t3qKeMUy32GtFT49nubf-5" edge="1">
          <mxGeometry width="50" height="50" relative="1" as="geometry">
            <mxPoint x="420" y="320" as="sourcePoint" />
            <mxPoint x="470" y="270" as="targetPoint" />
          </mxGeometry>
        </mxCell>
        <mxCell id="t3qKeMUy32GtFT49nubf-30" value="print_cars_list&lt;br&gt;начало" style="strokeWidth=2;html=1;shape=mxgraph.flowchart.terminator;whiteSpace=wrap;" parent="1" vertex="1">
          <mxGeometry x="80" y="480" width="120" height="60" as="geometry" />
        </mxCell>
        <mxCell id="t3qKeMUy32GtFT49nubf-31" value="" style="endArrow=none;html=1;rounded=0;edgeStyle=orthogonalEdgeStyle;entryX=0.5;entryY=1;entryDx=0;entryDy=0;entryPerimeter=0;exitX=0.5;exitY=0;exitDx=0;exitDy=0;" parent="1" source="t3qKeMUy32GtFT49nubf-32" target="t3qKeMUy32GtFT49nubf-30" edge="1">
          <mxGeometry width="50" height="50" relative="1" as="geometry">
            <mxPoint x="140" y="560" as="sourcePoint" />
            <mxPoint x="120" y="620" as="targetPoint" />
            <Array as="points" />
          </mxGeometry>
        </mxCell>
        <mxCell id="t3qKeMUy32GtFT49nubf-32" value="car =&amp;nbsp;cars.first" style="rounded=0;whiteSpace=wrap;html=1;" parent="1" vertex="1">
          <mxGeometry x="80" y="560" width="120" height="60" as="geometry" />
        </mxCell>
        <mxCell id="t3qKeMUy32GtFT49nubf-39" value="" style="endArrow=none;html=1;rounded=0;entryX=0.5;entryY=1;entryDx=0;entryDy=0;exitX=0.5;exitY=0;exitDx=0;exitDy=0;" parent="1" source="t3qKeMUy32GtFT49nubf-40" target="t3qKeMUy32GtFT49nubf-134" edge="1">
          <mxGeometry width="50" height="50" relative="1" as="geometry">
            <mxPoint x="140" y="720" as="sourcePoint" />
            <mxPoint x="140" y="700" as="targetPoint" />
          </mxGeometry>
        </mxCell>
        <mxCell id="t3qKeMUy32GtFT49nubf-40" value="car != 0" style="rhombus;whiteSpace=wrap;html=1;" parent="1" vertex="1">
          <mxGeometry x="80" y="720" width="120" height="60" as="geometry" />
        </mxCell>
        <mxCell id="t3qKeMUy32GtFT49nubf-41" value="" style="endArrow=none;html=1;rounded=0;edgeStyle=orthogonalEdgeStyle;entryX=0.5;entryY=1;entryDx=0;entryDy=0;exitX=0.5;exitY=0;exitDx=0;exitDy=0;" parent="1" source="t3qKeMUy32GtFT49nubf-137" target="t3qKeMUy32GtFT49nubf-40" edge="1">
          <mxGeometry width="50" height="50" relative="1" as="geometry">
            <mxPoint x="140" y="960" as="sourcePoint" />
            <mxPoint x="120" y="820" as="targetPoint" />
          </mxGeometry>
        </mxCell>
        <mxCell id="t3qKeMUy32GtFT49nubf-42" value="Да" style="endArrow=none;html=1;rounded=0;entryX=1;entryY=0.5;entryDx=0;entryDy=0;edgeStyle=orthogonalEdgeStyle;exitX=0.5;exitY=0;exitDx=0;exitDy=0;" parent="1" source="t3qKeMUy32GtFT49nubf-44" target="t3qKeMUy32GtFT49nubf-40" edge="1">
          <mxGeometry width="50" height="50" relative="1" as="geometry">
            <mxPoint x="300" y="800" as="sourcePoint" />
            <mxPoint x="250" y="790" as="targetPoint" />
            <Array as="points">
              <mxPoint x="300" y="750" />
            </Array>
          </mxGeometry>
        </mxCell>
        <mxCell id="t3qKeMUy32GtFT49nubf-43" value="" style="endArrow=classic;html=1;rounded=0;edgeStyle=orthogonalEdgeStyle;exitX=0.5;exitY=1;exitDx=0;exitDy=0;" parent="1" source="t3qKeMUy32GtFT49nubf-46" edge="1">
          <mxGeometry width="50" height="50" relative="1" as="geometry">
            <mxPoint x="240" y="710" as="sourcePoint" />
            <mxPoint x="140" y="710" as="targetPoint" />
            <Array as="points">
              <mxPoint x="300" y="960" />
              <mxPoint x="380" y="960" />
              <mxPoint x="380" y="710" />
            </Array>
          </mxGeometry>
        </mxCell>
        <mxCell id="t3qKeMUy32GtFT49nubf-44" value="print_car(car)" style="shape=process;whiteSpace=wrap;html=1;backgroundOutline=1;" parent="1" vertex="1">
          <mxGeometry x="240" y="800" width="120" height="60" as="geometry" />
        </mxCell>
        <mxCell id="t3qKeMUy32GtFT49nubf-45" value="" style="endArrow=none;html=1;rounded=0;entryX=0.5;entryY=1;entryDx=0;entryDy=0;exitX=0.5;exitY=0;exitDx=0;exitDy=0;" parent="1" source="t3qKeMUy32GtFT49nubf-46" target="t3qKeMUy32GtFT49nubf-44" edge="1">
          <mxGeometry width="50" height="50" relative="1" as="geometry">
            <mxPoint x="300" y="880" as="sourcePoint" />
            <mxPoint x="310" y="930" as="targetPoint" />
          </mxGeometry>
        </mxCell>
        <mxCell id="t3qKeMUy32GtFT49nubf-46" value="car =&amp;nbsp;car.next" style="rounded=0;whiteSpace=wrap;html=1;" parent="1" vertex="1">
          <mxGeometry x="240" y="880" width="120" height="60" as="geometry" />
        </mxCell>
        <mxCell id="t3qKeMUy32GtFT49nubf-49" value="" style="endArrow=none;html=1;rounded=0;entryX=0.5;entryY=1;entryDx=0;entryDy=0;exitX=0.5;exitY=0;exitDx=0;exitDy=0;exitPerimeter=0;" parent="1" source="t3qKeMUy32GtFT49nubf-50" target="t3qKeMUy32GtFT49nubf-137" edge="1">
          <mxGeometry width="50" height="50" relative="1" as="geometry">
            <mxPoint x="140" y="1040" as="sourcePoint" />
            <mxPoint x="140" y="1020.0000000000002" as="targetPoint" />
            <Array as="points" />
          </mxGeometry>
        </mxCell>
        <mxCell id="t3qKeMUy32GtFT49nubf-50" value="print_cars_list&lt;br&gt;конец" style="strokeWidth=2;html=1;shape=mxgraph.flowchart.terminator;whiteSpace=wrap;" parent="1" vertex="1">
          <mxGeometry x="80" y="1040" width="120" height="60" as="geometry" />
        </mxCell>
        <mxCell id="t3qKeMUy32GtFT49nubf-134" value="Вывод&amp;nbsp;&lt;br&gt;заголовка&lt;br&gt;таблицы" style="shape=parallelogram;perimeter=parallelogramPerimeter;whiteSpace=wrap;html=1;fixedSize=1;" parent="1" vertex="1">
          <mxGeometry x="80" y="640" width="120" height="60" as="geometry" />
        </mxCell>
        <mxCell id="t3qKeMUy32GtFT49nubf-135" value="" style="endArrow=none;html=1;rounded=0;edgeStyle=orthogonalEdgeStyle;entryX=0.5;entryY=1;entryDx=0;entryDy=0;exitX=0.5;exitY=0;exitDx=0;exitDy=0;" parent="1" source="t3qKeMUy32GtFT49nubf-134" target="t3qKeMUy32GtFT49nubf-32" edge="1">
          <mxGeometry width="50" height="50" relative="1" as="geometry">
            <mxPoint x="140" y="720" as="sourcePoint" />
            <mxPoint x="130" y="750" as="targetPoint" />
            <Array as="points" />
          </mxGeometry>
        </mxCell>
        <mxCell id="t3qKeMUy32GtFT49nubf-137" value="Вывод&lt;br&gt;границ&lt;br&gt;таблицы" style="shape=parallelogram;perimeter=parallelogramPerimeter;whiteSpace=wrap;html=1;fixedSize=1;" parent="1" vertex="1">
          <mxGeometry x="80" y="960" width="120" height="60" as="geometry" />
        </mxCell>
        <mxCell id="t3qKeMUy32GtFT49nubf-139" value="print_engine&lt;br&gt;начало" style="strokeWidth=2;html=1;shape=mxgraph.flowchart.terminator;whiteSpace=wrap;" parent="1" vertex="1">
          <mxGeometry x="280" y="1240" width="120" height="60" as="geometry" />
        </mxCell>
        <mxCell id="t3qKeMUy32GtFT49nubf-140" value="" style="endArrow=none;html=1;rounded=0;edgeStyle=orthogonalEdgeStyle;entryX=0.5;entryY=1;entryDx=0;entryDy=0;entryPerimeter=0;exitX=0.5;exitY=0;exitDx=0;exitDy=0;" parent="1" source="t3qKeMUy32GtFT49nubf-141" target="t3qKeMUy32GtFT49nubf-139" edge="1">
          <mxGeometry width="50" height="50" relative="1" as="geometry">
            <mxPoint x="340" y="1320" as="sourcePoint" />
            <mxPoint x="320" y="1380" as="targetPoint" />
          </mxGeometry>
        </mxCell>
        <mxCell id="t3qKeMUy32GtFT49nubf-141" value="engine_struct = engine" style="rounded=0;whiteSpace=wrap;html=1;" parent="1" vertex="1">
          <mxGeometry x="280" y="1320" width="120" height="60" as="geometry" />
        </mxCell>
        <mxCell id="t3qKeMUy32GtFT49nubf-142" value="" style="endArrow=none;html=1;rounded=0;edgeStyle=orthogonalEdgeStyle;entryX=0.5;entryY=1;entryDx=0;entryDy=0;exitX=0.5;exitY=0;exitDx=0;exitDy=0;" parent="1" source="t3qKeMUy32GtFT49nubf-143" target="t3qKeMUy32GtFT49nubf-141" edge="1">
          <mxGeometry width="50" height="50" relative="1" as="geometry">
            <mxPoint x="340" y="1400" as="sourcePoint" />
            <mxPoint x="320" y="1390" as="targetPoint" />
            <Array as="points">
              <mxPoint x="340" y="1400" />
              <mxPoint x="340" y="1400" />
            </Array>
          </mxGeometry>
        </mxCell>
        <mxCell id="t3qKeMUy32GtFT49nubf-143" value="Вывод" style="shape=parallelogram;perimeter=parallelogramPerimeter;whiteSpace=wrap;html=1;fixedSize=1;" parent="1" vertex="1">
          <mxGeometry x="280" y="1400" width="120" height="60" as="geometry" />
        </mxCell>
        <mxCell id="t3qKeMUy32GtFT49nubf-144" value="engine_struct.id,&amp;nbsp;&lt;br&gt;engine_struct.name,&amp;nbsp;&lt;br&gt;engine_struct.volume,&amp;nbsp;&lt;br&gt;engine_struct.power&amp;nbsp;" style="strokeWidth=2;html=1;shape=mxgraph.flowchart.annotation_1;align=right;pointerEvents=1;rotation=0;direction=west;" parent="1" vertex="1">
          <mxGeometry x="240" y="1400" width="20" height="60" as="geometry" />
        </mxCell>
        <mxCell id="t3qKeMUy32GtFT49nubf-145" value="" style="endArrow=none;dashed=1;html=1;rounded=0;entryX=0;entryY=0.5;entryDx=0;entryDy=0;entryPerimeter=0;edgeStyle=orthogonalEdgeStyle;exitX=0;exitY=0.5;exitDx=0;exitDy=0;" parent="1" source="t3qKeMUy32GtFT49nubf-143" target="t3qKeMUy32GtFT49nubf-144" edge="1">
          <mxGeometry width="50" height="50" relative="1" as="geometry">
            <mxPoint x="280" y="1420" as="sourcePoint" />
            <mxPoint x="260" y="1520" as="targetPoint" />
          </mxGeometry>
        </mxCell>
        <mxCell id="t3qKeMUy32GtFT49nubf-146" value="print_engine&lt;br style=&quot;border-color: var(--border-color);&quot;&gt;конец" style="strokeWidth=2;html=1;shape=mxgraph.flowchart.terminator;whiteSpace=wrap;" parent="1" vertex="1">
          <mxGeometry x="280" y="1480" width="120" height="60" as="geometry" />
        </mxCell>
        <mxCell id="t3qKeMUy32GtFT49nubf-147" value="" style="endArrow=none;html=1;rounded=0;edgeStyle=orthogonalEdgeStyle;entryX=0.5;entryY=1;entryDx=0;entryDy=0;exitX=0.5;exitY=0;exitDx=0;exitDy=0;exitPerimeter=0;" parent="1" source="t3qKeMUy32GtFT49nubf-146" target="t3qKeMUy32GtFT49nubf-143" edge="1">
          <mxGeometry width="50" height="50" relative="1" as="geometry">
            <mxPoint x="420" y="1520" as="sourcePoint" />
            <mxPoint x="470" y="1470" as="targetPoint" />
          </mxGeometry>
        </mxCell>
        <mxCell id="t3qKeMUy32GtFT49nubf-148" value="print_engines_list&lt;br style=&quot;border-color: var(--border-color);&quot;&gt;начало" style="strokeWidth=2;html=1;shape=mxgraph.flowchart.terminator;whiteSpace=wrap;" parent="1" vertex="1">
          <mxGeometry x="80" y="1640" width="120" height="60" as="geometry" />
        </mxCell>
        <mxCell id="t3qKeMUy32GtFT49nubf-149" value="" style="endArrow=none;html=1;rounded=0;edgeStyle=orthogonalEdgeStyle;entryX=0.5;entryY=1;entryDx=0;entryDy=0;entryPerimeter=0;exitX=0.5;exitY=0;exitDx=0;exitDy=0;" parent="1" source="t3qKeMUy32GtFT49nubf-150" target="t3qKeMUy32GtFT49nubf-148" edge="1">
          <mxGeometry width="50" height="50" relative="1" as="geometry">
            <mxPoint x="140" y="1720" as="sourcePoint" />
            <mxPoint x="120" y="1780" as="targetPoint" />
            <Array as="points" />
          </mxGeometry>
        </mxCell>
        <mxCell id="t3qKeMUy32GtFT49nubf-150" value="engine =&amp;nbsp;engines.first" style="rounded=0;whiteSpace=wrap;html=1;" parent="1" vertex="1">
          <mxGeometry x="80" y="1720" width="120" height="60" as="geometry" />
        </mxCell>
        <mxCell id="t3qKeMUy32GtFT49nubf-151" value="" style="endArrow=none;html=1;rounded=0;entryX=0.5;entryY=1;entryDx=0;entryDy=0;exitX=0.5;exitY=0;exitDx=0;exitDy=0;" parent="1" source="t3qKeMUy32GtFT49nubf-152" target="t3qKeMUy32GtFT49nubf-161" edge="1">
          <mxGeometry width="50" height="50" relative="1" as="geometry">
            <mxPoint x="140" y="1880" as="sourcePoint" />
            <mxPoint x="140" y="1860" as="targetPoint" />
          </mxGeometry>
        </mxCell>
        <mxCell id="t3qKeMUy32GtFT49nubf-152" value="component != 0" style="rhombus;whiteSpace=wrap;html=1;" parent="1" vertex="1">
          <mxGeometry x="80" y="1880" width="120" height="60" as="geometry" />
        </mxCell>
        <mxCell id="t3qKeMUy32GtFT49nubf-153" value="" style="endArrow=none;html=1;rounded=0;edgeStyle=orthogonalEdgeStyle;entryX=0.5;entryY=1;entryDx=0;entryDy=0;exitX=0.5;exitY=0;exitDx=0;exitDy=0;" parent="1" source="t3qKeMUy32GtFT49nubf-163" target="t3qKeMUy32GtFT49nubf-152" edge="1">
          <mxGeometry width="50" height="50" relative="1" as="geometry">
            <mxPoint x="140" y="2120" as="sourcePoint" />
            <mxPoint x="120" y="1980" as="targetPoint" />
          </mxGeometry>
        </mxCell>
        <mxCell id="t3qKeMUy32GtFT49nubf-154" value="Да" style="endArrow=none;html=1;rounded=0;entryX=1;entryY=0.5;entryDx=0;entryDy=0;edgeStyle=orthogonalEdgeStyle;exitX=0.5;exitY=0;exitDx=0;exitDy=0;" parent="1" source="t3qKeMUy32GtFT49nubf-156" target="t3qKeMUy32GtFT49nubf-152" edge="1">
          <mxGeometry width="50" height="50" relative="1" as="geometry">
            <mxPoint x="300" y="1960" as="sourcePoint" />
            <mxPoint x="250" y="1950" as="targetPoint" />
            <Array as="points">
              <mxPoint x="300" y="1910" />
            </Array>
          </mxGeometry>
        </mxCell>
        <mxCell id="t3qKeMUy32GtFT49nubf-155" value="" style="endArrow=classic;html=1;rounded=0;edgeStyle=orthogonalEdgeStyle;exitX=0.5;exitY=1;exitDx=0;exitDy=0;" parent="1" source="t3qKeMUy32GtFT49nubf-158" edge="1">
          <mxGeometry width="50" height="50" relative="1" as="geometry">
            <mxPoint x="240" y="1870" as="sourcePoint" />
            <mxPoint x="140" y="1870" as="targetPoint" />
            <Array as="points">
              <mxPoint x="300" y="2120" />
              <mxPoint x="380" y="2120" />
              <mxPoint x="380" y="1870" />
            </Array>
          </mxGeometry>
        </mxCell>
        <mxCell id="t3qKeMUy32GtFT49nubf-156" value="print_engine&lt;br&gt;(engine)" style="shape=process;whiteSpace=wrap;html=1;backgroundOutline=1;" parent="1" vertex="1">
          <mxGeometry x="240" y="1960" width="120" height="60" as="geometry" />
        </mxCell>
        <mxCell id="t3qKeMUy32GtFT49nubf-157" value="" style="endArrow=none;html=1;rounded=0;entryX=0.5;entryY=1;entryDx=0;entryDy=0;exitX=0.5;exitY=0;exitDx=0;exitDy=0;" parent="1" source="t3qKeMUy32GtFT49nubf-158" target="t3qKeMUy32GtFT49nubf-156" edge="1">
          <mxGeometry width="50" height="50" relative="1" as="geometry">
            <mxPoint x="300" y="2040" as="sourcePoint" />
            <mxPoint x="310" y="2090" as="targetPoint" />
          </mxGeometry>
        </mxCell>
        <mxCell id="t3qKeMUy32GtFT49nubf-158" value="engine =&amp;nbsp;&lt;br&gt;engine.next" style="rounded=0;whiteSpace=wrap;html=1;" parent="1" vertex="1">
          <mxGeometry x="240" y="2040" width="120" height="60" as="geometry" />
        </mxCell>
        <mxCell id="t3qKeMUy32GtFT49nubf-159" value="" style="endArrow=none;html=1;rounded=0;entryX=0.5;entryY=1;entryDx=0;entryDy=0;exitX=0.5;exitY=0;exitDx=0;exitDy=0;exitPerimeter=0;" parent="1" source="t3qKeMUy32GtFT49nubf-160" target="t3qKeMUy32GtFT49nubf-163" edge="1">
          <mxGeometry width="50" height="50" relative="1" as="geometry">
            <mxPoint x="140" y="2200" as="sourcePoint" />
            <mxPoint x="140" y="2180" as="targetPoint" />
            <Array as="points" />
          </mxGeometry>
        </mxCell>
        <mxCell id="t3qKeMUy32GtFT49nubf-160" value="print_engines_list&lt;br style=&quot;border-color: var(--border-color);&quot;&gt;конец" style="strokeWidth=2;html=1;shape=mxgraph.flowchart.terminator;whiteSpace=wrap;" parent="1" vertex="1">
          <mxGeometry x="80" y="2200" width="120" height="60" as="geometry" />
        </mxCell>
        <mxCell id="t3qKeMUy32GtFT49nubf-161" value="Вывод&amp;nbsp;&lt;br&gt;заголовка&lt;br&gt;таблицы" style="shape=parallelogram;perimeter=parallelogramPerimeter;whiteSpace=wrap;html=1;fixedSize=1;" parent="1" vertex="1">
          <mxGeometry x="80" y="1800" width="120" height="60" as="geometry" />
        </mxCell>
        <mxCell id="t3qKeMUy32GtFT49nubf-162" value="" style="endArrow=none;html=1;rounded=0;edgeStyle=orthogonalEdgeStyle;entryX=0.5;entryY=1;entryDx=0;entryDy=0;exitX=0.5;exitY=0;exitDx=0;exitDy=0;" parent="1" source="t3qKeMUy32GtFT49nubf-161" target="t3qKeMUy32GtFT49nubf-150" edge="1">
          <mxGeometry width="50" height="50" relative="1" as="geometry">
            <mxPoint x="140" y="1880" as="sourcePoint" />
            <mxPoint x="130" y="1910" as="targetPoint" />
            <Array as="points" />
          </mxGeometry>
        </mxCell>
        <mxCell id="t3qKeMUy32GtFT49nubf-163" value="Вывод&lt;br&gt;границ&lt;br&gt;таблицы" style="shape=parallelogram;perimeter=parallelogramPerimeter;whiteSpace=wrap;html=1;fixedSize=1;" parent="1" vertex="1">
          <mxGeometry x="80" y="2120" width="120" height="60" as="geometry" />
        </mxCell>
      </root>
    </mxGraphModel>
  </diagram>
</mxfile>
